PathFileType	4	(X/Y/Z)	Walk6.trc
DataRate	CameraRate	NumFrames	NumMarkers	Units	OrigDataRate	OrigDataStartFrame	OrigNumFrames
200.000000	200.000000	4	59	mm	200.000000	999	1038
Frame#	Times		LFHD		RFHD		RCAR		RWRU		LACR1		RACR1		RUA1		RTH2		LLFC		RFA1		LMT5		RASI		LTH3		LUA1		LElbow		LMT1		LTB4		RTH4		LToe		RBHD		RLFC		LTB3		LTH4		LTH2		STRN		CLAV		LASI		RTH3		LTH1		LWRU		C7		LFA1		RBack		RMT1		RTH1		LBHD		RMT5		RCAL		LPSI		LCAR		RToe		RTB2		RLMAL		RPSI		RTB3		LWRR		RTB4		RTB1		LTB1		LLMAL		RMMAL		RElbow		RWRR		RElbowM		T10		LTB2		LMMAL		LCAL		LElbowM
			X1	Y1	Z1	X2	Y2	Z2	X3	Y3	Z3	X4	Y4	Z4	X5	Y5	Z5	X6	Y6	Z6	X7	Y7	Z7	X8	Y8	Z8	X9	Y9	Z9	X10	Y10	Z10	X11	Y11	Z11	X12	Y12	Z12	X13	Y13	Z13	X14	Y14	Z14	X15	Y15	Z15	X16	Y16	Z16	X17	Y17	Z17	X18	Y18	Z18	X19	Y19	Z19	X20	Y20	Z20	X21	Y21	Z21	X22	Y22	Z22	X23	Y23	Z23	X24	Y24	Z24	X25	Y25	Z25	X26	Y26	Z26	X27	Y27	Z27	X28	Y28	Z28	X29	Y29	Z29	X30	Y30	Z30	X31	Y31	Z31	X32	Y32	Z32	X33	Y33	Z33	X34	Y34	Z34	X35	Y35	Z35	X36	Y36	Z36	X37	Y37	Z37	X38	Y38	Z38	X39	Y39	Z39	X40	Y40	Z40	X41	Y41	Z41	X42	Y42	Z42	X43	Y43	Z43	X44	Y44	Z44	X45	Y45	Z45	X46	Y46	Z46	X47	Y47	Z47	X48	Y48	Z48	X49	Y49	Z49	X50	Y50	Z50	X51	Y51	Z51	X52	Y52	Z52	X53	Y53	Z53	X54	Y54	Z54	X55	Y55	Z55	X56	Y56	Z56	X57	Y57	Z57	X58	Y58	Z58	X59	Y59	Z59

999	4.995	785.54	1591.8	-88.115	777.24	1588.1	10.017	583.41	789.38	273.15	558.67	852.65	295.75	676.02	1351.3	-236.18	652	1387.8	122.26	600.94	1254.4	217	782.05	671.58	188.6	640.52	488.28	-175.45	593.22	954.91	265.03	693.49	25.775	-153.36	740.3	977.77	147.71	677.33	559.32	-185.89	668.69	1203	-309.77	629.94	1056.9	-345.28	709.95	36.465	-62.334	633.78	249.32	-78.878	724.6	656.29	198.9	753.81	30.652	-63.47	608.02	1564.3	2.9763	762.45	485.39	186.87	625.12	163.97	-82.056	690.96	641.12	-213.69	740.45	642.62	-180.55	804.7	1231.9	-36.837	737.63	1344.4	-53.563	750.62	960.04	-208.07	746.43	572.34	190.52	708.47	719.42	-241.65	690.47	823.29	-399.29	575.57	1417.7	-54.971	699.81	941.5	-369.22	517.3	1320.3	42.648	756.8	48.027	108.22	713.06	739.88	211.23	639.18	1561	-128.54	726.52	45.57	188.59	573.43	91.843	107.96	513.13	981.2	-132.8	733.99	781.83	-399.33	794.75	40.321	125.41	730.53	302.88	178.38	625.7	115.59	162.56	495.03	980.17	0.098818	718.33	212.59	120.84	741.85	827.27	-345.02	752.75	289.97	120.89	797.68	364.12	122.7	650.07	333.39	-72.715	576.27	70.072	-142.78	662.12	117.73	84.484	547.91	1092.2	254.65	595.55	848.54	230.94	511.58	1081.3	168.85	526.2	1086	-49.153	635.05	253.66	-141.49	586.24	74.458	-57.741	519.38	30.372	-103.85	614.03	1020.6	-244.91
1000	5	789.51	1591.6	-88.06	781.18	1587.8	10.072	585.92	788.79	272.76	561.44	852.26	295.4	680.75	1350.9	-236.16	656.22	1387.3	122.14	604.9	1253.9	216.78	787.3	671.64	188.1	641.48	488.3	-175.5	596.32	954.38	264.63	693.5	25.745	-153.4	744.56	977.53	147.68	679.13	559.12	-185.81	673.7	1202.8	-310.17	636.12	1056.4	-345.86	709.96	36.474	-62.366	634.18	249.3	-78.947	729.97	656.07	198.58	753.84	30.645	-63.51	612.01	1563.6	2.9454	768.82	485.04	186.23	625.38	163.97	-82.163	694.4	640.71	-213.38	743.52	641.41	-179.63	808.83	1231.2	-36.33	741.85	1343.8	-53.514	754.6	959.38	-208.22	752.23	572.21	190.04	713.47	718.73	-241.08	700.19	823.69	-399.51	579.83	1417.2	-55.222	707.7	941.99	-369.43	521.49	1320	42.3	774.17	47.535	109.29	717.92	739.59	210.96	643.25	1560.4	-128.56	743.79	44.52	189.55	589.63	86.531	108.65	517.2	980.8	-132.85	744.31	782.85	-399.32	812.24	40.889	126.54	741.24	301.79	178.13	641.24	111.71	163.22	499.04	979.83	-0.036261	731.27	211.06	120.94	750.48	828.05	-344.48	763.62	289.33	120.67	806.52	364.58	122.14	650.55	333.36	-72.763	576.3	70.124	-142.78	677.72	114.6	85.109	551.53	1091.8	254.35	598.15	847.95	230.57	515	1081.1	168.6	530.22	1085.7	-49.441	635.34	253.7	-141.59	586.3	74.519	-57.752	519.4	30.416	-103.83	620.12	1019.9	-245.6
1001	5.005	793.49	1591.3	-87.975	785.12	1587.4	10.157	588.54	788.16	272.43	564.26	851.84	295.09	685.5	1350.4	-236.11	660.44	1386.7	122.05	608.86	1253.3	216.6	792.5	671.62	187.6	642.5	488.34	-175.54	599.46	953.82	264.27	693.51	25.711	-153.44	748.84	977.24	147.67	680.93	558.92	-185.77	678.76	1202.5	-310.55	642.3	1055.9	-346.41	709.97	36.483	-62.396	634.62	249.27	-79.009	735.28	655.79	198.26	753.86	30.635	-63.547	616.02	1562.8	2.9462	775.05	484.64	185.57	625.64	163.96	-82.263	697.77	640.3	-213.09	746.56	640.21	-178.79	812.96	1230.4	-35.809	746.08	1343.2	-53.422	758.57	958.74	-208.37	757.92	572.02	189.54	718.36	718.04	-240.54	709.85	824.1	-399.68	584.11	1416.8	-55.438	715.56	942.48	-369.62	525.68	1319.6	41.978	791.64	47.209	110.39	722.76	739.24	210.71	647.32	1559.8	-128.54	761.16	43.644	190.55	606.04	81.356	109.4	521.25	980.36	-132.84	754.57	783.89	-399.25	829.78	41.643	127.71	751.98	300.74	177.86	656.95	107.96	163.93	503.05	979.43	-0.1176	744.25	209.61	121.05	759.12	828.88	-343.94	774.47	288.73	120.42	815.28	365.06	121.52	651.09	333.33	-72.798	576.33	70.182	-142.8	693.47	111.59	85.772	555.16	1091.4	254.07	600.81	847.33	230.24	518.45	1080.9	168.38	534.25	1085.3	-49.691	635.69	253.73	-141.67	586.38	74.587	-57.777	519.42	30.476	-103.82	626.22	1019.2	-246.26
1002	5.01	797.46	1591	-87.86	789.06	1587.1	10.275	591.26	787.51	272.16	567.13	851.37	294.83	690.27	1349.9	-236.02	664.65	1386.1	122.02	612.82	1252.7	216.45	797.63	671.53	187.09	643.59	488.37	-175.59	602.63	953.22	263.97	693.51	25.674	-153.48	753.15	976.88	147.69	682.74	558.73	-185.76	683.87	1202.3	-310.9	648.48	1055.5	-346.95	709.98	36.492	-62.425	635.09	249.25	-79.06	740.52	655.46	197.95	753.87	30.622	-63.58	620.03	1562	2.9786	781.14	484.17	184.89	625.92	163.96	-82.353	701.08	639.89	-212.84	749.55	639.04	-178.04	817.08	1229.6	-35.278	750.32	1342.5	-53.286	762.54	958.1	-208.53	763.49	571.76	189.02	723.1	717.35	-240.04	719.47	824.53	-399.8	588.42	1416.3	-55.617	723.38	942.96	-369.79	529.88	1319.2	41.686	809.17	47.074	111.49	727.57	738.85	210.49	651.4	1559.1	-128.49	778.61	42.965	191.57	622.65	76.343	110.21	525.29	979.89	-132.76	764.77	784.95	-399.13	847.36	42.608	128.89	762.73	299.74	177.58	672.83	104.35	164.68	507.06	978.96	-0.1427	757.27	208.27	121.16	767.78	829.76	-343.41	785.31	288.18	120.16	823.94	365.55	120.85	651.68	333.28	-72.815	576.36	70.246	-142.82	709.35	108.73	86.464	558.79	1090.9	253.83	603.52	846.67	229.96	521.95	1080.6	168.18	538.27	1084.8	-49.902	636.1	253.75	-141.73	586.46	74.664	-57.819	519.42	30.552	-103.83	632.34	1018.5	-246.91
